<?xml version="1.0" encoding="UTF-8" standalone="no"?>
<svg
   xmlns:dc="http://purl.org/dc/elements/1.1/"
   xmlns:cc="http://creativecommons.org/ns#"
   xmlns:rdf="http://www.w3.org/1999/02/22-rdf-syntax-ns#"
   xmlns:svg="http://www.w3.org/2000/svg"
   xmlns="http://www.w3.org/2000/svg"
   xmlns:sodipodi="http://sodipodi.sourceforge.net/DTD/sodipodi-0.dtd"
   xmlns:inkscape="http://www.inkscape.org/namespaces/inkscape"
   width="710"
   height="390"
   viewBox="0 0 187.85417 103.1875"
   version="1.1"
   id="svg8"
   inkscape:version="1.0.2-2 (e86c870879, 2021-01-15)"
   sodipodi:docname="baixo - Copia.svg">
  <defs
     id="defs2" />
  <sodipodi:namedview
     id="base"
     pagecolor="#ffffff"
     bordercolor="#666666"
     borderopacity="1.0"
     inkscape:pageopacity="0.0"
     inkscape:pageshadow="2"
     inkscape:zoom="0.7"
     inkscape:cx="745.51128"
     inkscape:cy="11.229777"
     inkscape:document-units="px"
     inkscape:current-layer="layer1"
     inkscape:document-rotation="0"
     showgrid="false"
     inkscape:snap-bbox="true"
     inkscape:snap-global="true"
     units="px"
     inkscape:window-width="1920"
     inkscape:window-height="1017"
     inkscape:window-x="-8"
     inkscape:window-y="-8"
     inkscape:window-maximized="1" />
  <metadata
     id="metadata5">
    <rdf:RDF>
      <cc:Work
         rdf:about="">
        <dc:format>image/svg+xml</dc:format>
        <dc:type
           rdf:resource="http://purl.org/dc/dcmitype/StillImage" />
        <dc:title />
      </cc:Work>
    </rdf:RDF>
  </metadata>
  <g
     inkscape:label="Layer 1"
     inkscape:groupmode="layer"
     id="layer1">
    <g
       id="g2759-1-5-2"
       transform="matrix(0.56573723,0,0,0.56531796,-104.61201,-209.2009)">
      <path
         style="opacity:1;fill:#f42424;fill-opacity:1;stroke:none;stroke-width:0.264583"
         d="m 477.10381,431.69269 c 25.36431,28.61389 37.19693,70.18741 37.5225,103.4571 l -66.54139,0.13364 c 0,-14.96139 -3.11013,-30.53617 -9.85251,-43.9262 -2.42385,-4.81383 -4.80523,-8.47441 -7.83577,-12.92311"
         id="path2703-8-40-1-4"
         sodipodi:nodetypes="cccsc" />
      <path
         style="opacity:1;fill:#fe680a;fill-opacity:1;stroke:none;stroke-width:0.264583"
         d="M 422.16479,467.98269 C 404.75471,448.90361 378.33618,438.0229 357.51417,437.59843 l -10e-4,-66.03852 c 34.54424,-0.5056 83.25832,20.04006 111.37053,50.04863"
         id="path2679-7-2-4-0"
         sodipodi:nodetypes="cccc" />
      <path
         style="opacity:1;fill:#33c637;fill-opacity:1;stroke:none;stroke-width:0.264583"
         d="m 230.13209,425.1587 c -26.45299,28.53822 -42.85512,69.56564 -42.88097,109.96098 l 66.29703,0.16606 c 0.23711,-24.92135 8.43313,-46.88505 23.24722,-63.49632"
         id="path2703-8-4-3-1-8"
         sodipodi:nodetypes="cccc" />
      <path
         style="opacity:1;fill:#ffcf00;fill-opacity:1;stroke:none;stroke-width:0.264583"
         d="m 286.16115,461.90497 c 16.17859,-15.0681 41.19875,-24.00491 58.41401,-24.14766 l -0.18799,-65.66054 c -37.68191,1.58123 -75.29406,15.67182 -104.56695,43.81202"
         id="path2679-7-5-5-3-4"
         sodipodi:nodetypes="cccc" />
    </g>
    <path
       id="path2705-4-3-3"
       style="fill:#1a1a1a;fill-opacity:1;stroke:none;stroke-width:0.135993"
       inkscape:transform-center-x="9.8933499"
       inkscape:transform-center-y="-31.383513"
       d="M 65.306707,23.110519 86.28447,89.091742 a 8.6564474,8.6500321 85.426242 0 0 -0.601563,7.686921 8.6564474,8.6500321 85.426242 0 0 11.257988,4.790697 8.6564474,8.6500321 85.426242 0 0 4.786205,-11.265571 8.6564474,8.6500321 85.426242 0 0 -5.775714,-5.12176 z" />
  </g>
</svg>
